<?xml version="1.0" encoding="UTF-8"?>
<svg width="1912px" height="1887px" viewBox="0 0 1912 1887" version="1.1" xmlns="http://www.w3.org/2000/svg" xmlns:xlink="http://www.w3.org/1999/xlink">
    <title>Artboard</title>
    <defs>
        <rect id="path-1" x="0" y="0" width="359" height="341"></rect>
    </defs>
    <g id="Artboard" stroke="none" stroke-width="1" fill="none" fill-rule="evenodd">
        <g id="rotate-(1)" transform="translate(307.000000, 164.000000)">
            <path d="M377.536083,268.500524 C397.54003,268.532029 405.646511,269.986565 413.135076,273.825526 L413.135076,273.825526 L413.640743,274.088057 C420.583452,277.799084 425.700392,282.916024 429.18733,289.436032 L429.18733,289.436032 L429.67395,290.3644 C433.555566,297.936171 434.999476,306.139667 434.999476,326.634613 L434.999476,326.634613 L434.999476,945.36539 C434.999476,965.86033 433.555566,974.06383 429.67395,981.6356 L429.67395,981.6356 L429.411419,982.14127 C425.700392,989.08398 420.583452,994.20092 414.063444,997.68785 L414.063444,997.68785 L413.135076,998.17447 C405.563305,1002.05609 397.359809,1003.5 376.864863,1003.5 L376.864863,1003.5 L58.134089,1003.5 C37.639143,1003.5 29.435647,1002.05609 21.863876,998.17447 L21.863876,998.17447 L21.358209,997.91194 C14.4155,994.20092 9.29856,989.08398 5.811622,982.56397 L5.811622,982.56397 L5.325004,981.6356 C1.496475,974.16737 0.043231,966.08397 -5.68434189e-14,946.13072 L-5.68434189e-14,946.13072 L-5.68434189e-14,325.963393 C0.031505,305.959446 1.486041,297.852965 5.325002,290.3644 L5.325002,290.3644 L5.587533,289.858733 C9.29856,282.916024 14.4155,277.799084 20.935508,274.312146 L20.935508,274.312146 L21.863872,273.825528 C29.332112,269.996997 37.415514,268.543753 57.368781,268.500524 L57.368781,268.500524 L377.536083,268.500524 Z" id="Rectangle" stroke="#FFFFFF" stroke-width="35"></path>
            <g id="Clipped" transform="translate(381.499476, 0.000000)">
                <mask id="mask-2" fill="white">
                    <use xlink:href="#path-1"></use>
                </mask>
                <g id="path-1"></g>
                <circle id="Oval" stroke="#FFFFFF" stroke-width="35" mask="url(#mask-2)" cx="-0.5" cy="340.5" r="264"></circle>
            </g>
            <polygon id="Triangle" fill="#FFFFFF" fill-rule="nonzero" transform="translate(647.999476, 392.000000) scale(-1, 1) rotate(-180.000000) translate(-647.999476, -392.000000) " points="647.999476 340 737.499476 444 558.499476 444"></polygon>
            <path d="M130.548041,251 L303.450911,251 C314.594895,251 318.635973,252.16032 322.710047,254.339159 C326.784121,256.517997 329.981479,259.715355 332.160317,263.789429 C334.339156,267.863503 335.499476,271.904581 335.499476,283.048565 L335.499476,303.951435 C335.499476,315.095419 334.339156,319.136497 332.160317,323.210571 C329.981479,327.284645 326.784121,330.482003 322.710047,332.660841 C318.635973,334.83968 314.594895,336 303.450911,336 L130.548041,336 C119.404057,336 115.362979,334.83968 111.288905,332.660841 C107.214831,330.482003 104.017473,327.284645 101.838635,323.210571 C99.659796,319.136497 98.499476,315.095419 98.499476,303.951435 L98.499476,283.048565 C98.499476,271.904581 99.659796,267.863503 101.838635,263.789429 C104.017473,259.715355 107.214831,256.517997 111.288905,254.339159 C115.362979,252.16032 119.404057,251 130.548041,251 Z" id="Rectangle" fill="#FFFFFF" fill-rule="nonzero"></path>
            <path d="M1116.16194,408.274927 L1116.73949,408.574778 L1117.31642,408.880415 C1126.73092,413.915348 1134.16169,421.254873 1139.29455,430.584823 L1139.61906,431.183052 C1139.7219,431.375348 1139.82379,431.567613 1139.9247,431.759982 L1140.22455,432.337534 L1140.64613,433.171928 L1140.92049,433.73103 L1141.32192,434.57573 L1141.58281,435.143937 L1141.96394,436.005647 L1142.21126,436.58743 L1142.45311,437.175894 L1142.68948,437.771754 L1143.03377,438.680979 L1143.36569,439.610869 C1143.40188,439.715427 1143.43784,439.820413 1143.47357,439.925842 L1143.68518,440.563838 L1143.89124,441.213165 L1144.09173,441.874537 L1144.28667,442.54867 L1144.476,443.236278 C1144.50709,443.352042 1144.53795,443.468398 1144.56857,443.585359 L1144.7495,444.294522 L1144.92481,445.018949 L1145.09449,445.759355 L1145.2585,446.516455 L1145.41685,447.290965 L1145.56954,448.083598 L1145.7165,448.895072 L1145.85777,449.7261 L1145.99332,450.577398 C1146.01544,450.72101 1146.03732,450.865496 1146.05894,451.010872 L1146.18588,451.893916 L1146.30706,452.799018 C1146.32677,452.951747 1146.34625,453.105424 1146.36548,453.260065 L1146.478,454.199595 L1146.58473,455.162971 L1146.68563,456.150908 L1146.78073,457.164121 L1146.86998,458.203326 L1146.95338,459.269238 L1147.03091,460.362571 L1147.10257,461.484041 L1147.199,463.220568 L1147.2559,464.41551 L1147.30687,465.641092 L1147.35189,466.898029 L1147.39097,468.187037 L1147.42407,469.50883 L1147.46247,471.554558 L1147.48058,472.961444 L1147.49266,474.40362 L1147.49948,476.634613 L1147.49948,1096.1182 L1147.49266,1097.59638 L1147.48058,1099.03856 L1147.46247,1100.44544 L1147.42407,1102.49117 L1147.39097,1103.81296 L1147.35189,1105.10197 L1147.30687,1106.35891 L1147.2559,1107.58449 L1147.199,1108.77943 L1147.1362,1109.94445 L1147.06747,1111.08026 L1146.99287,1112.18757 L1146.91241,1113.2671 L1146.82607,1114.31957 L1146.73391,1115.34569 L1146.63591,1116.34618 L1146.53208,1117.32174 L1146.42247,1118.27311 C1146.40371,1118.42969 1146.38472,1118.58529 1146.36548,1118.73994 L1146.24719,1119.65633 L1146.12313,1120.55032 C1146.10198,1120.69749 1146.08059,1120.84375 1146.05894,1120.98913 L1145.92627,1121.85083 L1145.78786,1122.6919 L1145.64374,1123.51306 L1145.4939,1124.31503 C1145.46846,1124.44713 1145.44277,1124.57846 1145.41685,1124.70904 L1145.2585,1125.48354 L1145.09449,1126.24064 L1144.92481,1126.98105 L1144.7495,1127.70548 L1144.56857,1128.41464 L1144.38204,1129.10926 L1144.18991,1129.79004 L1143.99219,1130.4577 L1143.7889,1131.11296 L1143.58007,1131.75653 C1143.50954,1131.96919 1143.43808,1132.18001 1143.36569,1132.38913 L1143.14579,1133.01147 C1143.10869,1133.11438 1143.07134,1133.21689 1143.03377,1133.31902 L1142.80562,1133.92732 L1142.57197,1134.52715 L1142.33286,1135.11922 L1142.08828,1135.70425 L1141.83826,1136.28296 L1141.58281,1136.85606 L1141.32192,1137.42427 L1141.05566,1137.9883 L1140.64613,1138.82807 L1140.22455,1139.66247 L1139.9247,1140.24002 L1139.61906,1140.81695 C1134.58412,1150.23145 1127.2446,1157.66222 1117.91466,1162.79508 L1117.31642,1163.11959 C1117.12412,1163.22243 1116.93187,1163.32431 1116.73949,1163.42522 L1116.16194,1163.72507 L1115.32755,1164.14666 L1114.76845,1164.42102 L1113.92375,1164.82245 L1113.35554,1165.08333 L1112.49383,1165.46447 L1111.91205,1165.71178 L1111.32359,1165.95363 L1110.72772,1166.19001 L1109.81849,1166.5343 L1108.88861,1166.86622 C1108.78404,1166.90241 1108.67906,1166.93837 1108.57363,1166.9741 L1107.93563,1167.1857 L1107.28631,1167.39176 L1106.62493,1167.59226 L1105.9508,1167.78719 L1105.26319,1167.97653 C1105.14743,1168.00762 1105.03107,1168.03848 1104.91412,1168.0691 L1104.20496,1168.25003 L1103.48052,1168.42534 L1102.74012,1168.59501 L1101.98301,1168.75903 L1101.20851,1168.91738 L1100.41588,1169.07006 L1099.60441,1169.21703 L1098.77337,1169.3583 L1097.92207,1169.49385 C1097.77846,1169.51597 1097.63397,1169.53784 1097.48861,1169.55947 L1096.60556,1169.68641 L1095.70046,1169.80759 C1095.54772,1169.8273 1095.39405,1169.84678 1095.23942,1169.86601 L1094.29988,1169.97853 L1093.3365,1170.08525 L1092.34856,1170.18616 L1091.33536,1170.28125 L1090.29614,1170.3705 L1089.23023,1170.4539 L1088.1369,1170.53144 L1087.01543,1170.6031 L1085.27891,1170.69953 L1084.08396,1170.75643 L1082.85838,1170.8074 L1081.60144,1170.85242 L1080.31243,1170.89149 L1078.99064,1170.92459 L1076.94492,1170.963 L1075.53804,1170.98111 L1074.09586,1171 L1071.86487,1171 L752.381275,1171 L750.903095,1171 L749.460915,1170.98111 L748.054035,1170.963 L746.008305,1170.92459 L744.686515,1170.89149 L743.397505,1170.85242 L742.140565,1170.8074 L740.914985,1170.75643 L739.720045,1170.69953 L738.555025,1170.63672 L737.419215,1170.568 L736.311905,1170.4934 L735.232375,1170.41293 L734.179905,1170.3266 L733.153785,1170.23443 L732.153295,1170.13643 L731.177735,1170.03261 L730.226365,1169.92299 C730.069785,1169.90424 729.914185,1169.88525 729.759535,1169.86601 L728.843145,1169.74772 L727.949155,1169.62366 C727.801985,1169.60251 727.655725,1169.58111 727.510345,1169.55947 L726.648645,1169.42679 L725.807575,1169.28838 L724.986415,1169.14426 L724.184445,1168.99443 C724.052345,1168.96899 723.921015,1168.9433 723.790435,1168.91738 L723.015935,1168.75903 L722.258835,1168.59501 L721.518425,1168.42534 L720.793995,1168.25003 L720.084835,1168.0691 L719.390215,1167.88256 L718.709435,1167.69043 L718.041775,1167.49271 L717.386515,1167.28943 L716.742945,1167.08059 C716.530285,1167.01006 716.319465,1166.9386 716.110345,1166.86622 L715.488005,1166.64632 C715.385095,1166.60921 715.282585,1166.57187 715.180455,1166.5343 L714.572155,1166.30615 L713.972325,1166.0725 L713.380255,1165.83339 L712.795225,1165.58881 L712.216515,1165.33878 L711.643415,1165.08333 L711.075205,1164.82245 L710.511175,1164.55618 L709.671405,1164.14666 L708.837009,1163.72507 L708.259457,1163.42522 L707.682527,1163.11959 C698.268021,1158.08465 690.837254,1150.74513 685.704395,1141.41518 L685.37989,1140.81695 C685.277049,1140.62465 685.175169,1140.43239 685.074253,1140.24002 L684.774402,1139.66247 L684.35714,1138.83679 L683.951705,1138.00587 L683.688008,1137.44785 L683.302387,1136.60299 L683.051942,1136.03352 L682.806822,1135.45825 L682.56704,1134.8765 L682.217408,1133.99018 L681.991034,1133.38917 L681.770047,1132.77925 L681.55446,1132.15972 L681.344288,1131.52989 L681.139544,1130.88907 L680.940242,1130.23656 L680.746395,1129.57167 L680.558019,1128.89371 L680.375125,1128.20198 L680.197729,1127.49579 C680.168622,1127.37685 680.139744,1127.25728 680.111096,1127.13706 L679.941972,1126.40789 L679.778378,1125.66253 L679.62033,1124.90028 L679.467841,1124.12045 L679.320925,1123.32235 L679.179595,1122.50529 L679.043866,1121.66858 L678.913751,1120.81151 L678.789264,1119.9334 L678.670419,1119.03356 L678.557229,1118.11128 L678.449708,1117.16589 L678.347871,1116.19668 L678.25173,1115.20296 L678.161299,1114.18404 L678.036391,1112.60689 L677.960298,1111.52193 L677.889963,1110.40935 L677.8254,1109.26845 L677.739411,1107.50248 L677.68934,1106.28775 L677.64509,1105.04227 L677.606674,1103.76535 L677.574107,1102.4563 L677.547402,1101.11443 L677.518366,1099.03856 L677.506376,1097.61159 L677.500232,1096.14937 L677.500232,475.881799 L677.506281,474.40362 L677.518366,472.961444 L677.536471,471.554558 L677.574889,469.50883 L677.607986,468.187037 L677.647054,466.898029 L677.69208,465.641092 L677.743049,464.41551 L677.799947,463.220568 L677.862759,462.055551 L677.931472,460.919744 L678.006071,459.812432 L678.086542,458.732899 L678.172871,457.68043 L678.265044,456.654311 L678.363046,455.653825 L678.466863,454.678257 L678.576482,453.726894 C678.595234,453.57031 678.614228,453.414706 678.633462,453.260065 L678.751755,452.343665 L678.875814,451.449682 C678.89697,451.302513 678.918365,451.156248 678.94,451.010872 L679.072681,450.149171 L679.211091,449.308097 L679.355217,448.486935 L679.505044,447.684971 C679.530489,447.552871 679.556172,447.42154 679.582091,447.290965 L679.740444,446.516455 L679.904463,445.759355 L680.074134,445.018949 L680.249442,444.294522 L680.430373,443.585359 L680.616914,442.890745 L680.80905,442.209963 L681.006766,441.5423 L681.210049,440.88704 L681.418884,440.243468 C681.48942,440.030813 681.560878,439.819986 681.633257,439.610869 L681.853154,438.988527 C681.890264,438.885618 681.927602,438.783107 681.96517,438.680979 L682.193326,438.072682 L682.426971,437.472855 L682.666089,436.880782 L682.910668,436.295748 L683.160692,435.717038 L683.416148,435.143937 L683.677021,434.57573 L683.943297,434.011701 L684.352811,433.171928 L684.774402,432.337534 L685.074253,431.759982 L685.37989,431.183052 C690.414823,421.768546 697.754348,414.337779 707.084298,409.20492 L707.682527,408.880415 C707.874823,408.777574 708.067088,408.675694 708.259457,408.574778 L708.837009,408.274927 L709.662685,407.857665 L710.493605,407.45223 L711.051625,407.188533 L711.896485,406.802912 L712.465955,406.552467 L713.041225,406.307347 L713.622975,406.067565 L714.509295,405.717933 L715.110305,405.491559 L715.720225,405.270572 L716.339755,405.054985 L716.969585,404.844813 L717.610405,404.640069 L718.262915,404.440767 L718.927805,404.24692 L719.605765,404.058544 L720.297495,403.87565 L721.003685,403.698254 C721.122625,403.669147 721.242195,403.640269 721.362415,403.611621 L722.091585,403.442497 L722.836945,403.278903 L723.599195,403.120855 L724.379025,402.968366 L725.177125,402.82145 L725.994185,402.68012 L726.830895,402.544391 L727.687965,402.414276 L728.566075,402.289789 L729.465915,402.170944 L730.388195,402.057754 L731.333585,401.950233 L732.302795,401.848396 L733.296515,401.752255 L734.315435,401.661824 L735.892585,401.536916 L736.977545,401.460823 L738.090125,401.390488 L739.231025,401.325925 L740.996995,401.239936 L742.211725,401.189865 L743.457205,401.145615 L744.734125,401.107199 L746.043175,401.074632 L747.385045,401.047927 L749.460915,401.018891 L750.887885,401.000757 L752.350105,401.000757 L1072.61767,401.000757 L1074.09586,401.000757 L1075.53804,401.018891 L1076.94492,401.036996 L1078.99064,401.075414 L1080.31243,401.108511 L1081.60144,401.147579 L1082.85838,401.192605 L1084.08396,401.243574 L1085.27891,401.300472 L1086.44393,401.363284 L1087.57973,401.431997 L1088.68705,401.506596 L1089.76658,401.587067 L1090.81905,401.673396 L1091.84517,401.765569 L1092.84566,401.863571 L1093.82121,401.967388 L1094.77259,402.077007 C1094.92917,402.095759 1095.08477,402.114753 1095.23942,402.133987 L1096.1558,402.25228 L1097.04979,402.376339 C1097.19697,402.397495 1097.34323,402.41889 1097.48861,402.440525 L1098.3503,402.573206 L1099.19137,402.711616 L1100.01253,402.855742 L1100.8145,403.005569 C1100.94661,403.031014 1101.07793,403.056697 1101.20851,403.082616 L1101.98301,403.240969 L1102.74012,403.404988 L1103.48052,403.574659 L1104.20496,403.749967 L1104.91412,403.930898 L1105.60873,404.117439 L1106.28951,404.309575 L1106.95718,404.507291 L1107.61244,404.710574 L1108.25601,404.919409 C1108.46866,404.989945 1108.67949,405.061403 1108.88861,405.133782 L1109.51094,405.353679 C1109.61386,405.390789 1109.71636,405.428127 1109.81849,405.465695 L1110.42679,405.693851 L1111.02662,405.927496 L1111.6187,406.166614 L1112.20372,406.411193 L1112.78244,406.661217 L1113.35554,406.916673 L1113.92375,407.177546 L1114.48778,407.443822 L1115.32755,407.853336 L1116.16194,408.274927 Z M724.983035,439.329355 L724.355745,439.654841 L724.188485,439.743877 C720.673065,441.623943 718.123415,444.173594 716.243355,447.689012 L716.068355,448.019311 L715.828725,448.483767 L715.598195,448.952927 L715.376725,449.430889 L715.234075,449.755667 L715.095375,450.086226 L714.894715,450.594542 L714.765815,450.942827 L714.640795,451.299512 L714.460455,451.851922 L714.345005,452.232876 L714.233325,452.624846 L714.125405,453.02858 L714.021215,453.444826 L713.871865,454.094291 L713.776885,454.545089 L713.641225,455.249888 L713.555295,455.739912 L713.472935,456.246935 L713.394115,456.771704 L713.318835,457.314969 L713.212445,458.166178 L713.113835,459.063208 L713.052375,459.687929 L712.994305,460.334884 L712.888235,461.698486 L712.817395,462.785113 L712.734385,464.323983 L712.664275,465.97123 L712.620025,467.281389 L712.594445,468.191812 L712.561895,469.614792 L712.536245,471.108831 L712.517415,472.676452 L712.505305,474.32018 L712.499475,476.634567 L712.499475,1096.07559 L712.515305,1098.89425 L712.540405,1100.99454 L712.577335,1102.96391 L712.626315,1104.80838 L712.671095,1106.11339 L712.722885,1107.35407 L712.761355,1108.1467 L712.825025,1109.28581 L712.895965,1110.36737 L712.947345,1111.05769 L713.002015,1111.72431 L713.090265,1112.68146 L713.153305,1113.29214 L713.254245,1114.16889 L713.362935,1115.00079 L713.479455,1115.79039 L713.603905,1116.54022 L713.691325,1117.01927 L713.782345,1117.48252 L713.876995,1117.93074 L713.975295,1118.36466 L714.077275,1118.78506 L714.237215,1119.39192 C714.255455,1119.45785 714.273845,1119.52329 714.292405,1119.58826 L714.463625,1120.16073 L714.643415,1120.71037 L714.768095,1121.06537 L714.962385,1121.58261 L715.096815,1121.91836 L715.235205,1122.24773 L715.450255,1122.73147 L715.674355,1123.20508 L715.907475,1123.671 L716.243355,1124.31099 C718.123415,1127.82641 720.673065,1130.37606 724.188485,1132.25612 L724.470475,1132.406 L724.983245,1132.67075 L725.452405,1132.90128 L725.930365,1133.12275 L726.255145,1133.2654 L726.585705,1133.4041 L727.094015,1133.60476 L727.442305,1133.73366 L727.798985,1133.85868 L728.351395,1134.03902 L728.732355,1134.15447 L729.124325,1134.26615 L729.528055,1134.37407 L729.944305,1134.47826 L730.593765,1134.62761 L731.044565,1134.72259 L731.749365,1134.85825 L732.239395,1134.94418 L732.746415,1135.02654 L733.271185,1135.10536 L733.814445,1135.18064 L734.665665,1135.28703 L735.562695,1135.38564 L736.187415,1135.4471 L736.834365,1135.50517 L738.197975,1135.61124 L739.284605,1135.68208 L740.823475,1135.76509 L742.470725,1135.8352 L743.780885,1135.87945 L744.691315,1135.90503 L746.114295,1135.93758 L747.608335,1135.96323 L749.175965,1135.98206 L750.819695,1136 L753.134085,1136 L1073.03991,1136 L1075.82298,1135.98206 L1077.89667,1135.95544 L1079.36676,1135.9275 L1080.30764,1135.90503 L1081.66208,1135.86549 L1082.52823,1135.8352 L1084.17548,1135.76509 L1085.33947,1135.70405 L1086.80098,1135.61124 L1088.16458,1135.50517 L1088.81153,1135.4471 L1089.74051,1135.35363 L1090.33329,1135.28703 L1091.18451,1135.18064 L1091.72777,1135.10536 L1092.25254,1135.02654 L1092.75956,1134.94418 L1093.24959,1134.85825 L1093.95439,1134.72259 L1094.40519,1134.62761 L1095.05465,1134.47826 L1095.47089,1134.37407 L1095.87462,1134.26615 L1096.2666,1134.15447 L1096.64756,1134.03902 L1097.19996,1133.85868 L1097.55665,1133.73366 L1097.90494,1133.60476 L1098.41325,1133.4041 L1098.74381,1133.2654 L1099.06858,1133.12275 L1099.54655,1132.90128 L1100.0157,1132.67075 L1100.6432,1132.34516 L1100.81047,1132.25612 C1104.32588,1130.37606 1106.87554,1127.82641 1108.7556,1124.31099 L1108.93059,1123.98069 L1109.17022,1123.51623 L1109.40076,1123.04707 L1109.62223,1122.56911 L1109.76487,1122.24433 L1109.90357,1121.91377 L1110.10423,1121.40546 L1110.23313,1121.05717 L1110.35815,1120.70049 L1110.53849,1120.14808 L1110.65395,1119.76712 L1110.76562,1119.37515 L1110.87354,1118.97142 L1110.97773,1118.55517 L1111.12709,1117.90571 L1111.22206,1117.45491 L1111.35772,1116.75011 L1111.44366,1116.26008 L1111.52601,1115.75306 L1111.60484,1115.22829 L1111.68012,1114.68503 L1111.78651,1113.83381 L1111.88512,1112.93678 L1111.94657,1112.31206 L1112.00464,1111.66511 L1112.11071,1110.3015 L1112.18156,1109.21487 L1112.26456,1107.676 L1112.33468,1106.02875 L1112.37892,1104.71859 L1112.4045,1103.80816 L1112.43705,1102.38518 L1112.4627,1100.89114 L1112.48153,1099.32351 L1112.49365,1097.67978 L1112.49948,1095.36539 L1112.49948,475.45957 L1112.48153,472.676489 L1112.45491,470.602798 L1112.42697,469.132722 L1112.4045,468.191838 L1112.36496,466.837389 L1112.33468,465.971252 L1112.26456,464.324 L1112.20352,463.160013 L1112.11071,461.698499 L1112.00464,460.334894 L1111.94657,459.687938 L1111.85311,458.758959 L1111.78651,458.166185 L1111.68012,457.314974 L1111.60484,456.771709 L1111.52601,456.246939 L1111.44366,455.739915 L1111.35772,455.249891 L1111.22206,454.545092 L1111.12709,454.094293 L1110.97773,453.444828 L1110.87354,453.028581 L1110.76562,452.624847 L1110.65395,452.232876 L1110.53849,451.851923 L1110.35815,451.299512 L1110.23313,450.942828 L1110.10423,450.594542 L1109.90357,450.086226 L1109.76487,449.755667 L1109.62223,449.430889 L1109.40076,448.952927 L1109.17022,448.483767 L1108.93059,448.019311 C1108.8743,447.911979 1108.81601,447.801953 1108.7556,447.689012 C1106.87554,444.173594 1104.32588,441.623943 1100.81047,439.743877 L1100.52747,439.593 L1100.0157,439.329254 L1099.54655,439.09872 L1099.06858,438.87725 L1098.74381,438.734595 L1098.41325,438.595903 L1097.90494,438.39524 L1097.55665,438.266342 L1097.19996,438.141317 L1096.64756,437.960984 L1096.2666,437.845526 L1095.87464,437.73385 L1095.47089,437.625929 L1095.05465,437.521738 L1094.40519,437.372387 L1093.95439,437.277406 L1093.24959,437.141749 L1092.75956,437.055815 L1092.25254,436.973456 L1091.72777,436.894645 L1091.18451,436.819355 L1090.33331,436.712967 L1089.43628,436.614357 L1088.81155,436.552895 L1088.1646,436.494825 L1086.801,436.388758 L1085.71438,436.317918 L1084.17551,436.234912 L1082.52826,436.1648 L1081.2181,436.120552 L1080.30768,436.094974 L1078.88472,436.062423 L1077.39068,436.036775 L1075.82305,436.01794 L1074.17933,436 L1071.86496,436 L752.423885,436 L749.605225,436.015833 L747.504935,436.040932 L745.535565,436.077859 L743.691095,436.12684 L742.386085,436.171624 L741.145405,436.223412 L740.352775,436.261877 L739.213665,436.325554 L738.132105,436.396492 L737.441785,436.447865 L736.775165,436.502537 L735.818015,436.59079 L735.207335,436.653832 L734.330585,436.754773 L733.498685,436.863456 L732.709085,436.979976 L731.959255,437.10443 L731.480205,437.191853 L731.016955,437.282874 L730.568735,437.377519 L730.134815,437.475819 L729.714415,437.577801 L729.107555,437.737741 C729.041625,437.75598 728.976185,437.774374 728.911215,437.792926 L728.338745,437.964148 L727.789105,438.143942 L727.434105,438.268616 L726.916865,438.462913 L726.581115,438.597344 L726.251745,438.735727 L725.768005,438.950775 L725.294395,439.174877 L724.983035,439.329355 Z" id="Rectangle" fill="#FFFFFF" fill-rule="nonzero" transform="translate(912.499853, 786.000378) rotate(90.000000) translate(-912.499853, -786.000378) "></path>
            <path d="M1168.54804,744 L1341.45092,744 C1352.5949,744 1356.63598,745.16032 1360.71005,747.339159 C1364.78413,749.517997 1367.98148,752.715355 1370.16032,756.789429 C1372.33916,760.863503 1373.49948,764.904581 1373.49948,776.048565 L1373.49948,796.95144 C1373.49948,808.09542 1372.33916,812.1365 1370.16032,816.21057 C1367.98148,820.28465 1364.78413,823.482 1360.71005,825.66084 C1356.63598,827.83968 1352.5949,829 1341.45092,829 L1168.54804,829 C1157.40406,829 1153.36298,827.83968 1149.28891,825.66084 C1145.21483,823.482 1142.01748,820.28465 1139.83864,816.21057 C1137.6598,812.1365 1136.49948,808.09542 1136.49948,796.95144 L1136.49948,776.048565 C1136.49948,764.904581 1137.6598,760.863503 1139.83864,756.789429 C1142.01748,752.715355 1145.21483,749.517997 1149.28891,747.339159 C1153.36298,745.16032 1157.40406,744 1168.54804,744 Z" id="Rectangle" fill="#FFFFFF" fill-rule="nonzero" transform="translate(1254.999476, 786.500000) rotate(90.000000) translate(-1254.999476, -786.500000) "></path>
        </g>
        <path d="M421.175,1503.5 C429.775,1503.5 437.65,1502 444.8,1499 C451.95,1496 457.975,1491.65 462.875,1485.95 L462.875,1485.95 L450.275,1473.95 C442.675,1482.25 433.325,1486.4 422.225,1486.4 C415.025,1486.4 408.575,1484.825 402.875,1481.675 C397.175,1478.525 392.725,1474.15 389.525,1468.55 C386.325,1462.95 384.725,1456.6 384.725,1449.5 C384.725,1442.4 386.325,1436.05 389.525,1430.45 C392.725,1424.85 397.175,1420.475 402.875,1417.325 C408.575,1414.175 415.025,1412.6 422.225,1412.6 C433.325,1412.6 442.675,1416.7 450.275,1424.9 L450.275,1424.9 L462.875,1413.05 C457.975,1407.35 451.975,1403 444.875,1400 C437.775,1397 429.925,1395.5 421.325,1395.5 C410.725,1395.5 401.15,1397.825 392.6,1402.475 C384.05,1407.125 377.325,1413.55 372.425,1421.75 C367.525,1429.95 365.075,1439.2 365.075,1449.5 C365.075,1459.8 367.5,1469.05 372.35,1477.25 C377.2,1485.45 383.9,1491.875 392.45,1496.525 C401,1501.175 410.575,1503.5 421.175,1503.5 Z M489.275,1408.7 C492.775,1408.7 495.65,1407.575 497.9,1405.325 C500.15,1403.075 501.275,1400.3 501.275,1397 C501.275,1393.9 500.125,1391.325 497.825,1389.275 C495.525,1387.225 492.675,1386.2 489.275,1386.2 C485.875,1386.2 483.025,1387.275 480.725,1389.425 C478.425,1391.575 477.275,1394.25 477.275,1397.45 C477.275,1400.65 478.425,1403.325 480.725,1405.475 C483.025,1407.625 485.875,1408.7 489.275,1408.7 Z M498.575,1502 L498.575,1421.9 L479.825,1421.9 L479.825,1502 L498.575,1502 Z M541.925,1502 L541.925,1461.5 C541.925,1453.7 543.925,1447.725 547.925,1443.575 C551.925,1439.425 557.375,1437.35 564.275,1437.35 C570.375,1437.35 575.075,1439.125 578.375,1442.675 C581.675,1446.225 583.325,1451.5 583.325,1458.5 L583.325,1458.5 L583.325,1502 L602.075,1502 L602.075,1456.1 C602.075,1444.5 599.025,1435.75 592.925,1429.85 C586.825,1423.95 578.725,1421 568.625,1421 C563.025,1421 557.95,1421.875 553.4,1423.625 C548.85,1425.375 545.025,1427.9 541.925,1431.2 L541.925,1431.2 L541.925,1390.7 L523.175,1390.7 L523.175,1502 L541.925,1502 Z M650.075,1503.05 C656.075,1503.05 661.2,1502.125 665.45,1500.275 C669.7,1498.425 672.975,1495.75 675.275,1492.25 L675.275,1492.25 L675.275,1502 L692.975,1502 L692.975,1455.05 C692.975,1443.65 689.85,1435.125 683.6,1429.475 C677.35,1423.825 668.325,1421 656.525,1421 C649.925,1421 643.675,1421.85 637.775,1423.55 C631.875,1425.25 626.825,1427.7 622.625,1430.9 L622.625,1430.9 L629.975,1444.55 C632.975,1442.05 636.65,1440.1 641,1438.7 C645.35,1437.3 649.775,1436.6 654.275,1436.6 C660.875,1436.6 665.85,1438.1 669.2,1441.1 C672.55,1444.1 674.225,1448.4 674.225,1454 L674.225,1454 L674.225,1455.2 L653.525,1455.2 C642.025,1455.2 633.6,1457.375 628.25,1461.725 C622.9,1466.075 620.225,1471.85 620.225,1479.05 C620.225,1483.65 621.45,1487.775 623.9,1491.425 C626.35,1495.075 629.825,1497.925 634.325,1499.975 C638.825,1502.025 644.075,1503.05 650.075,1503.05 Z M653.975,1489.4 C649.175,1489.4 645.425,1488.4 642.725,1486.4 C640.025,1484.4 638.675,1481.7 638.675,1478.3 C638.675,1471.2 644.075,1467.65 654.875,1467.65 L654.875,1467.65 L674.225,1467.65 L674.225,1476.95 C672.725,1480.95 670.15,1484.025 666.5,1486.175 C662.85,1488.325 658.675,1489.4 653.975,1489.4 Z M779.525,1502 L779.525,1487 L734.225,1487 L778.325,1433.75 L778.325,1421.9 L711.275,1421.9 L711.275,1436.9 L754.325,1436.9 L710.375,1490.15 L710.375,1502 L779.525,1502 Z M815.525,1502 L815.525,1421.9 L796.775,1421.9 L796.775,1502 L815.525,1502 Z M858.875,1502 L858.875,1461.5 C858.875,1453.7 860.875,1447.725 864.875,1443.575 C868.875,1439.425 874.325,1437.35 881.225,1437.35 C887.325,1437.35 892.025,1439.125 895.325,1442.675 C898.625,1446.225 900.275,1451.5 900.275,1458.5 L900.275,1458.5 L900.275,1502 L919.025,1502 L919.025,1456.1 C919.025,1444.5 915.975,1435.75 909.875,1429.85 C903.775,1423.95 895.675,1421 885.575,1421 C879.675,1421 874.375,1421.95 869.675,1423.85 C864.975,1425.75 861.075,1428.55 857.975,1432.25 L857.975,1432.25 L857.975,1421.9 L840.125,1421.9 L840.125,1502 L858.875,1502 Z M961.625,1502 L961.625,1421.9 L942.875,1421.9 L942.875,1502 L961.625,1502 Z M1048.775,1502 L1048.775,1487 L1003.475,1487 L1047.575,1433.75 L1047.575,1421.9 L980.525,1421.9 L980.525,1436.9 L1023.575,1436.9 L979.625,1490.15 L979.625,1502 L1048.775,1502 Z M1084.775,1502 L1084.775,1421.9 L1066.025,1421.9 L1066.025,1502 L1084.775,1502 Z M1157.375,1532.15 C1164.475,1532.15 1170.525,1530.375 1175.525,1526.825 C1180.525,1523.275 1184.775,1517.15 1188.275,1508.45 L1188.275,1508.45 L1225.775,1421.9 L1207.775,1421.9 L1182.425,1481.15 L1157.225,1421.9 L1137.725,1421.9 L1172.675,1502.3 L1171.325,1505.45 C1169.525,1509.45 1167.55,1512.3 1165.4,1514 C1163.25,1515.7 1160.525,1516.55 1157.225,1516.55 C1154.725,1516.55 1152.25,1516.05 1149.8,1515.05 C1147.35,1514.05 1145.225,1512.7 1143.425,1511 L1143.425,1511 L1135.925,1524.8 C1138.425,1527.1 1141.625,1528.9 1145.525,1530.2 C1149.425,1531.5 1153.375,1532.15 1157.375,1532.15 Z M1259.075,1503.05 C1265.075,1503.05 1270.2,1502.125 1274.45,1500.275 C1278.7,1498.425 1281.975,1495.75 1284.275,1492.25 L1284.275,1492.25 L1284.275,1502 L1301.975,1502 L1301.975,1455.05 C1301.975,1443.65 1298.85,1435.125 1292.6,1429.475 C1286.35,1423.825 1277.325,1421 1265.525,1421 C1258.925,1421 1252.675,1421.85 1246.775,1423.55 C1240.875,1425.25 1235.825,1427.7 1231.625,1430.9 L1231.625,1430.9 L1238.975,1444.55 C1241.975,1442.05 1245.65,1440.1 1250,1438.7 C1254.35,1437.3 1258.775,1436.6 1263.275,1436.6 C1269.875,1436.6 1274.85,1438.1 1278.2,1441.1 C1281.55,1444.1 1283.225,1448.4 1283.225,1454 L1283.225,1454 L1283.225,1455.2 L1262.525,1455.2 C1251.025,1455.2 1242.6,1457.375 1237.25,1461.725 C1231.9,1466.075 1229.225,1471.85 1229.225,1479.05 C1229.225,1483.65 1230.45,1487.775 1232.9,1491.425 C1235.35,1495.075 1238.825,1497.925 1243.325,1499.975 C1247.825,1502.025 1253.075,1503.05 1259.075,1503.05 Z M1262.975,1489.4 C1258.175,1489.4 1254.425,1488.4 1251.725,1486.4 C1249.025,1484.4 1247.675,1481.7 1247.675,1478.3 C1247.675,1471.2 1253.075,1467.65 1263.875,1467.65 L1263.875,1467.65 L1283.225,1467.65 L1283.225,1476.95 C1281.725,1480.95 1279.15,1484.025 1275.5,1486.175 C1271.85,1488.325 1267.675,1489.4 1262.975,1489.4 Z M1356.125,1503.05 C1359.625,1503.05 1362.95,1502.6 1366.1,1501.7 C1369.25,1500.8 1371.925,1499.45 1374.125,1497.65 L1374.125,1497.65 L1368.875,1484.3 C1366.075,1486.5 1362.575,1487.6 1358.375,1487.6 C1354.775,1487.6 1352.025,1486.575 1350.125,1484.525 C1348.225,1482.475 1347.275,1479.5 1347.275,1475.6 L1347.275,1475.6 L1347.275,1437.5 L1368.725,1437.5 L1368.725,1422.5 L1347.275,1422.5 L1347.275,1404.2 L1328.525,1404.2 L1328.525,1422.5 L1315.325,1422.5 L1315.325,1437.5 L1328.525,1437.5 L1328.525,1476.05 C1328.525,1484.85 1330.925,1491.55 1335.725,1496.15 C1340.525,1500.75 1347.325,1503.05 1356.125,1503.05 Z M1413.725,1503.05 C1419.725,1503.05 1424.85,1502.125 1429.1,1500.275 C1433.35,1498.425 1436.625,1495.75 1438.925,1492.25 L1438.925,1492.25 L1438.925,1502 L1456.625,1502 L1456.625,1455.05 C1456.625,1443.65 1453.5,1435.125 1447.25,1429.475 C1441,1423.825 1431.975,1421 1420.175,1421 C1413.575,1421 1407.325,1421.85 1401.425,1423.55 C1395.525,1425.25 1390.475,1427.7 1386.275,1430.9 L1386.275,1430.9 L1393.625,1444.55 C1396.625,1442.05 1400.3,1440.1 1404.65,1438.7 C1409,1437.3 1413.425,1436.6 1417.925,1436.6 C1424.525,1436.6 1429.5,1438.1 1432.85,1441.1 C1436.2,1444.1 1437.875,1448.4 1437.875,1454 L1437.875,1454 L1437.875,1455.2 L1417.175,1455.2 C1405.675,1455.2 1397.25,1457.375 1391.9,1461.725 C1386.55,1466.075 1383.875,1471.85 1383.875,1479.05 C1383.875,1483.65 1385.1,1487.775 1387.55,1491.425 C1390,1495.075 1393.475,1497.925 1397.975,1499.975 C1402.475,1502.025 1407.725,1503.05 1413.725,1503.05 Z M1417.625,1489.4 C1412.825,1489.4 1409.075,1488.4 1406.375,1486.4 C1403.675,1484.4 1402.325,1481.7 1402.325,1478.3 C1402.325,1471.2 1407.725,1467.65 1418.525,1467.65 L1418.525,1467.65 L1437.875,1467.65 L1437.875,1476.95 C1436.375,1480.95 1433.8,1484.025 1430.15,1486.175 C1426.5,1488.325 1422.325,1489.4 1417.625,1489.4 Z M1485.725,1532.15 C1492.825,1532.15 1498.875,1530.375 1503.875,1526.825 C1508.875,1523.275 1513.125,1517.15 1516.625,1508.45 L1516.625,1508.45 L1554.125,1421.9 L1536.125,1421.9 L1510.775,1481.15 L1485.575,1421.9 L1466.075,1421.9 L1501.025,1502.3 L1499.675,1505.45 C1497.875,1509.45 1495.9,1512.3 1493.75,1514 C1491.6,1515.7 1488.875,1516.55 1485.575,1516.55 C1483.075,1516.55 1480.6,1516.05 1478.15,1515.05 C1475.7,1514.05 1473.575,1512.7 1471.775,1511 L1471.775,1511 L1464.275,1524.8 C1466.775,1527.1 1469.975,1528.9 1473.875,1530.2 C1477.775,1531.5 1481.725,1532.15 1485.725,1532.15 Z M388.625,1685 L388.625,1663.85 L402.575,1650.65 L430.325,1685 L453.125,1685 L416.525,1638.5 L449.975,1604.9 L427.475,1604.9 L388.625,1640.9 L388.625,1573.7 L369.875,1573.7 L369.875,1685 L388.625,1685 Z M497.975,1686.05 C506.175,1686.05 513.525,1684.3 520.025,1680.8 C526.525,1677.3 531.6,1672.425 535.25,1666.175 C538.9,1659.925 540.725,1652.85 540.725,1644.95 C540.725,1637.05 538.9,1630 535.25,1623.8 C531.6,1617.6 526.525,1612.75 520.025,1609.25 C513.525,1605.75 506.175,1604 497.975,1604 C489.875,1604 482.575,1605.75 476.075,1609.25 C469.575,1612.75 464.5,1617.6 460.85,1623.8 C457.2,1630 455.375,1637.05 455.375,1644.95 C455.375,1652.85 457.2,1659.925 460.85,1666.175 C464.5,1672.425 469.575,1677.3 476.075,1680.8 C482.575,1684.3 489.875,1686.05 497.975,1686.05 Z M497.975,1670 C491.075,1670 485.4,1667.7 480.95,1663.1 C476.5,1658.5 474.275,1652.45 474.275,1644.95 C474.275,1637.45 476.5,1631.4 480.95,1626.8 C485.4,1622.2 491.075,1619.9 497.975,1619.9 C504.875,1619.9 510.575,1622.2 515.075,1626.8 C519.575,1631.4 521.825,1637.45 521.825,1644.95 C521.825,1652.45 519.575,1658.5 515.075,1663.1 C510.575,1667.7 504.875,1670 497.975,1670 Z M577.475,1685 L577.475,1644.5 C577.475,1636.7 579.475,1630.725 583.475,1626.575 C587.475,1622.425 592.925,1620.35 599.825,1620.35 C605.925,1620.35 610.625,1622.125 613.925,1625.675 C617.225,1629.225 618.875,1634.5 618.875,1641.5 L618.875,1641.5 L618.875,1685 L637.625,1685 L637.625,1639.1 C637.625,1627.5 634.575,1618.75 628.475,1612.85 C622.375,1606.95 614.275,1604 604.175,1604 C598.275,1604 592.975,1604.95 588.275,1606.85 C583.575,1608.75 579.675,1611.55 576.575,1615.25 L576.575,1615.25 L576.575,1604.9 L558.725,1604.9 L558.725,1685 L577.475,1685 Z M695.375,1686.05 C700.575,1686.05 705.425,1685.075 709.925,1683.125 C714.425,1681.175 718.175,1678.4 721.175,1674.8 L721.175,1674.8 L721.175,1685 L739.025,1685 L739.025,1604.9 L720.275,1604.9 L720.275,1645.4 C720.275,1653.2 718.3,1659.175 714.35,1663.325 C710.4,1667.475 705.075,1669.55 698.375,1669.55 C692.375,1669.55 687.75,1667.775 684.5,1664.225 C681.25,1660.675 679.625,1655.3 679.625,1648.1 L679.625,1648.1 L679.625,1604.9 L660.875,1604.9 L660.875,1650.65 C660.875,1662.35 663.95,1671.175 670.1,1677.125 C676.25,1683.075 684.675,1686.05 695.375,1686.05 Z M782.375,1685 L782.375,1644.35 C782.375,1636.55 784.25,1630.6 788,1626.5 C791.75,1622.4 796.825,1620.35 803.225,1620.35 C809.025,1620.35 813.475,1622.125 816.575,1625.675 C819.675,1629.225 821.225,1634.5 821.225,1641.5 L821.225,1641.5 L821.225,1685 L839.975,1685 L839.975,1644.35 C839.975,1636.65 841.875,1630.725 845.675,1626.575 C849.475,1622.425 854.525,1620.35 860.825,1620.35 C866.625,1620.35 871.075,1622.125 874.175,1625.675 C877.275,1629.225 878.825,1634.5 878.825,1641.5 L878.825,1641.5 L878.825,1685 L897.575,1685 L897.575,1639.1 C897.575,1627.4 894.625,1618.625 888.725,1612.775 C882.825,1606.925 874.825,1604 864.725,1604 C858.425,1604 852.675,1605.175 847.475,1607.525 C842.275,1609.875 838.025,1613.15 834.725,1617.35 C832.025,1612.95 828.35,1609.625 823.7,1607.375 C819.05,1605.125 813.725,1604 807.725,1604 C802.225,1604 797.225,1604.95 792.725,1606.85 C788.225,1608.75 784.475,1611.5 781.475,1615.1 L781.475,1615.1 L781.475,1604.9 L763.625,1604.9 L763.625,1685 L782.375,1685 Z M945.725,1686.05 C951.725,1686.05 956.85,1685.125 961.1,1683.275 C965.35,1681.425 968.625,1678.75 970.925,1675.25 L970.925,1675.25 L970.925,1685 L988.625,1685 L988.625,1638.05 C988.625,1626.65 985.5,1618.125 979.25,1612.475 C973,1606.825 963.975,1604 952.175,1604 C945.575,1604 939.325,1604.85 933.425,1606.55 C927.525,1608.25 922.475,1610.7 918.275,1613.9 L918.275,1613.9 L925.625,1627.55 C928.625,1625.05 932.3,1623.1 936.65,1621.7 C941,1620.3 945.425,1619.6 949.925,1619.6 C956.525,1619.6 961.5,1621.1 964.85,1624.1 C968.2,1627.1 969.875,1631.4 969.875,1637 L969.875,1637 L969.875,1638.2 L949.175,1638.2 C937.675,1638.2 929.25,1640.375 923.9,1644.725 C918.55,1649.075 915.875,1654.85 915.875,1662.05 C915.875,1666.65 917.1,1670.775 919.55,1674.425 C922,1678.075 925.475,1680.925 929.975,1682.975 C934.475,1685.025 939.725,1686.05 945.725,1686.05 Z M949.625,1672.4 C944.825,1672.4 941.075,1671.4 938.375,1669.4 C935.675,1667.4 934.325,1664.7 934.325,1661.3 C934.325,1654.2 939.725,1650.65 950.525,1650.65 L950.525,1650.65 L969.875,1650.65 L969.875,1659.95 C968.375,1663.95 965.8,1667.025 962.15,1669.175 C958.5,1671.325 954.325,1672.4 949.625,1672.4 Z M1090.325,1715.15 C1119.125,1715.15 1133.525,1701.05 1133.525,1672.85 L1133.525,1672.85 L1133.525,1604.9 L1115.675,1604.9 L1115.675,1615.55 C1112.475,1611.65 1108.5,1608.75 1103.75,1606.85 C1099,1604.95 1093.725,1604 1087.925,1604 C1080.325,1604 1073.45,1605.6 1067.3,1608.8 C1061.15,1612 1056.3,1616.525 1052.75,1622.375 C1049.2,1628.225 1047.425,1634.95 1047.425,1642.55 C1047.425,1650.15 1049.2,1656.9 1052.75,1662.8 C1056.3,1668.7 1061.15,1673.275 1067.3,1676.525 C1073.45,1679.775 1080.325,1681.4 1087.925,1681.4 C1093.425,1681.4 1098.475,1680.5 1103.075,1678.7 C1107.675,1676.9 1111.575,1674.25 1114.775,1670.75 L1114.775,1670.75 L1114.775,1674.95 C1114.775,1683.15 1112.725,1689.25 1108.625,1693.25 C1104.525,1697.25 1098.075,1699.25 1089.275,1699.25 C1083.775,1699.25 1078.35,1698.375 1073,1696.625 C1067.65,1694.875 1063.225,1692.55 1059.725,1689.65 L1059.725,1689.65 L1051.325,1703.75 C1055.825,1707.45 1061.525,1710.275 1068.425,1712.225 C1075.325,1714.175 1082.625,1715.15 1090.325,1715.15 Z M1090.775,1665.5 C1083.575,1665.5 1077.7,1663.375 1073.15,1659.125 C1068.6,1654.875 1066.325,1649.35 1066.325,1642.55 C1066.325,1635.85 1068.6,1630.4 1073.15,1626.2 C1077.7,1622 1083.575,1619.9 1090.775,1619.9 C1097.875,1619.9 1103.7,1622 1108.25,1626.2 C1112.8,1630.4 1115.075,1635.85 1115.075,1642.55 C1115.075,1649.35 1112.8,1654.875 1108.25,1659.125 C1103.7,1663.375 1097.875,1665.5 1090.775,1665.5 Z M1195.775,1686.05 C1202.675,1686.05 1208.875,1684.95 1214.375,1682.75 C1219.875,1680.55 1224.425,1677.3 1228.025,1673 L1228.025,1673 L1217.975,1661.45 C1212.275,1667.25 1205.025,1670.15 1196.225,1670.15 C1189.325,1670.15 1183.55,1668.425 1178.9,1664.975 C1174.25,1661.525 1171.375,1656.85 1170.275,1650.95 L1170.275,1650.95 L1233.125,1650.95 C1233.325,1648.55 1233.425,1646.7 1233.425,1645.4 C1233.425,1637.2 1231.7,1629.975 1228.25,1623.725 C1224.8,1617.475 1220,1612.625 1213.85,1609.175 C1207.7,1605.725 1200.725,1604 1192.925,1604 C1185.025,1604 1177.925,1605.75 1171.625,1609.25 C1165.325,1612.75 1160.4,1617.625 1156.85,1623.875 C1153.3,1630.125 1151.525,1637.15 1151.525,1644.95 C1151.525,1652.85 1153.35,1659.925 1157,1666.175 C1160.65,1672.425 1165.825,1677.3 1172.525,1680.8 C1179.225,1684.3 1186.975,1686.05 1195.775,1686.05 Z M1215.575,1638.5 L1170.125,1638.5 C1171.025,1632.6 1173.55,1627.875 1177.7,1624.325 C1181.85,1620.775 1186.925,1619 1192.925,1619 C1199.025,1619 1204.125,1620.8 1208.225,1624.4 C1212.325,1628 1214.775,1632.7 1215.575,1638.5 L1215.575,1638.5 Z M1281.575,1686.05 C1285.075,1686.05 1288.4,1685.6 1291.55,1684.7 C1294.7,1683.8 1297.375,1682.45 1299.575,1680.65 L1299.575,1680.65 L1294.325,1667.3 C1291.525,1669.5 1288.025,1670.6 1283.825,1670.6 C1280.225,1670.6 1277.475,1669.575 1275.575,1667.525 C1273.675,1665.475 1272.725,1662.5 1272.725,1658.6 L1272.725,1658.6 L1272.725,1620.5 L1294.175,1620.5 L1294.175,1605.5 L1272.725,1605.5 L1272.725,1587.2 L1253.975,1587.2 L1253.975,1605.5 L1240.775,1605.5 L1240.775,1620.5 L1253.975,1620.5 L1253.975,1659.05 C1253.975,1667.85 1256.375,1674.55 1261.175,1679.15 C1265.975,1683.75 1272.775,1686.05 1281.575,1686.05 Z M1324.475,1591.7 C1327.975,1591.7 1330.85,1590.575 1333.1,1588.325 C1335.35,1586.075 1336.475,1583.3 1336.475,1580 C1336.475,1576.9 1335.325,1574.325 1333.025,1572.275 C1330.725,1570.225 1327.875,1569.2 1324.475,1569.2 C1321.075,1569.2 1318.225,1570.275 1315.925,1572.425 C1313.625,1574.575 1312.475,1577.25 1312.475,1580.45 C1312.475,1583.65 1313.625,1586.325 1315.925,1588.475 C1318.225,1590.625 1321.075,1591.7 1324.475,1591.7 Z M1333.775,1685 L1333.775,1604.9 L1315.025,1604.9 L1315.025,1685 L1333.775,1685 Z M1377.125,1685 L1377.125,1646.15 C1377.125,1638.15 1379.175,1632.025 1383.275,1627.775 C1387.375,1623.525 1393.075,1621.4 1400.375,1621.4 C1401.675,1621.4 1403.125,1621.55 1404.725,1621.85 L1404.725,1621.85 L1404.725,1604 C1391.125,1604 1381.625,1608.2 1376.225,1616.6 L1376.225,1616.6 L1376.225,1604.9 L1358.375,1604.9 L1358.375,1685 L1377.125,1685 Z M1430.075,1591.7 C1433.575,1591.7 1436.45,1590.575 1438.7,1588.325 C1440.95,1586.075 1442.075,1583.3 1442.075,1580 C1442.075,1576.9 1440.925,1574.325 1438.625,1572.275 C1436.325,1570.225 1433.475,1569.2 1430.075,1569.2 C1426.675,1569.2 1423.825,1570.275 1421.525,1572.425 C1419.225,1574.575 1418.075,1577.25 1418.075,1580.45 C1418.075,1583.65 1419.225,1586.325 1421.525,1588.475 C1423.825,1590.625 1426.675,1591.7 1430.075,1591.7 Z M1439.375,1685 L1439.375,1604.9 L1420.625,1604.9 L1420.625,1685 L1439.375,1685 Z M1482.725,1685 L1482.725,1644.5 C1482.725,1636.7 1484.725,1630.725 1488.725,1626.575 C1492.725,1622.425 1498.175,1620.35 1505.075,1620.35 C1511.175,1620.35 1515.875,1622.125 1519.175,1625.675 C1522.475,1629.225 1524.125,1634.5 1524.125,1641.5 L1524.125,1641.5 L1524.125,1685 L1542.875,1685 L1542.875,1639.1 C1542.875,1627.5 1539.825,1618.75 1533.725,1612.85 C1527.625,1606.95 1519.525,1604 1509.425,1604 C1503.525,1604 1498.225,1604.95 1493.525,1606.85 C1488.825,1608.75 1484.925,1611.55 1481.825,1615.25 L1481.825,1615.25 L1481.825,1604.9 L1463.975,1604.9 L1463.975,1685 L1482.725,1685 Z" id="Cihazınızıyataykonumagetirin" fill="#FFFFFF" fill-rule="nonzero"></path>
    </g>
</svg>